# xmcd
#
# Track frame offsets:
# 150
# 19575
# 37142
# 57052
# 73742
# 89345
# 108777
# 129300
# 147777
# 162330
# 184452
# 201432
# 218635
# 233102
# 249872
# 266915
#
# Disc length: 3835 seconds
#
#
# Revision: 6
# Processed by: cddbd v1.5.2PL0 Copyright (c) Steve Scherf et al.
# Submitted via: FreeRIP 2.95 
#
DISCID=e50ef910
DTITLE=DJ.DOC - 6th - LOVE and SEX and HAPPINESS
DYEAR=2004
DGENRE=Hip-Hop
TTITLE0=DJ.DOC 6th - 01 끝나버린 이야기
TTITLE1=DJ.DOC 6th - 02 찍었어
TTITLE2=DJ.DOC 6th - 03 I WANNA (Drop it like it's hot!) (ft. Smash from 45 R.P.M., RED━ROC)
TTITLE3=DJ.DOC 6th - 04 FOR YOU
TTITLE4=DJ.DOC 6th - 05 수사반장
TTITLE5=DJ.DOC 6th - 06 바보처럼 살았군요 (ReMaKe)  (ft. 김도향, RED━ROC)
TTITLE6=DJ.DOC 6th - 07 돌아보면 靑春 (ft. J━dogg from Rhyme Bus)
TTITLE7=DJ.DOC 6th - 08 내 손을 잡아줘
TTITLE8=DJ.DOC 6th - 09 ONE NIGHT (ft. RED━ROC)
TTITLE9=DJ.DOC 6th - 10 恨 (ft. An, 박화요비)
TTITLE10=DJ.DOC 6th - 11 IN LOVE
TTITLE11=DJ.DOC 6th - 12 STREET LIFE (ft. Leo kekoa, Big MaMa King)
TTITLE12=DJ.DOC 6th - 13 PARTY PARTY (ft. PSY)
TTITLE13=DJ.DOC 6th - 14 나를봐 (Boriqua) (ft. J━Dogg of Rhyme Bus)
TTITLE14=DJ.DOC 6th - 15 어제와 다른상상 (ft. 허인창)
TTITLE15=DJ.DOC 6th - 16 괜찮아
EXTD=
EXTT0=
EXTT1=
EXTT2=
EXTT3=
EXTT4=
EXTT5=
EXTT6=
EXTT7=
EXTT8=
EXTT9=
EXTT10=
EXTT11=
EXTT12=
EXTT13=
EXTT14=
EXTT15=
PLAYORDER=
